<svg id="Layer_1" data-name="Layer 1" xmlns="http://www.w3.org/2000/svg" viewBox="0 0 44.2 44.2"><title>dribbble</title><path id="Dribbble" d="M23,.9A22.1,22.1,0,1,0,45.1,23,22.1,22.1,0,0,0,23,.9ZM36.54,12.36a17.1,17.1,0,0,1,3.68,9.83,34.13,34.13,0,0,0-7-.79h0a28.16,28.16,0,0,0-5,.44c-.38-.93-.77-1.83-1.16-2.68A26.87,26.87,0,0,0,36.54,12.36ZM23,5.76A17.09,17.09,0,0,1,33.75,9.55a22.46,22.46,0,0,1-8.47,6,61.13,61.13,0,0,0-5.94-9.43A17,17,0,0,1,23,5.76Zm-7.62,1.8a52.53,52.53,0,0,1,6.16,9.37A49.94,49.94,0,0,1,7.92,18.85H7.65c-.54,0-1,0-1.38,0A17.3,17.3,0,0,1,15.38,7.56ZM5.76,23a2.18,2.18,0,0,1,0-.25c.49,0,1.12,0,1.88,0h0A54.71,54.71,0,0,0,23.3,20.54q.51,1.09,1,2.28a27.29,27.29,0,0,0-9.7,5.72,29.83,29.83,0,0,0-4.76,5.55A17.14,17.14,0,0,1,5.76,23ZM23,40.24a17.11,17.11,0,0,1-10.24-3.4,24.65,24.65,0,0,1,4-4.92,23.3,23.3,0,0,1,9-5.42,86.09,86.09,0,0,1,3.4,12.61A17.05,17.05,0,0,1,23,40.24Zm9.76-3.06A90.44,90.44,0,0,0,29.58,25.6a23.34,23.34,0,0,1,3.53-.26h0a30.47,30.47,0,0,1,6.77.82A17.24,17.24,0,0,1,32.76,37.18Z" transform="translate(-0.9 -0.9)" style="fill:#fff"/></svg>