<svg id="Layer_1" data-name="Layer 1" xmlns="http://www.w3.org/2000/svg" viewBox="0 0 42.44 42.43"><title>instagram</title><path d="M33.37,44.24H12.66l-.41-.07a10.45,10.45,0,0,1-3.34-.88c-4.56-2.16-7-5.76-7.08-10.81-.09-6.29,0-12.59,0-18.88A11.21,11.21,0,0,1,3.29,7.85a11.52,11.52,0,0,1,10.45-6c6.18,0,12.37,0,18.55,0a11.19,11.19,0,0,1,2.39.21,11.51,11.51,0,0,1,9.19,8.72c.17.62.24,1.27.35,1.91V33.39c-.07.44-.11.87-.21,1.3a11.56,11.56,0,0,1-8.74,9.21C34.65,44.07,34,44.13,33.37,44.24ZM23,5.59H13.81A8.36,8.36,0,0,0,11,6a7.91,7.91,0,0,0-5.39,7.74c0,6.18,0,12.37,0,18.55A8.86,8.86,0,0,0,6,35.07a7.83,7.83,0,0,0,7.71,5.41c6.18,0,12.36,0,18.55,0A8.89,8.89,0,0,0,35,40a7.81,7.81,0,0,0,5.41-7.66c0-6.23,0-12.46,0-18.68a8,8,0,0,0-8.22-8.11Z" transform="translate(-1.78 -1.82)" style="fill:#fff"/><path d="M33.94,23A10.93,10.93,0,1,1,23,12.11,11,11,0,0,1,33.94,23ZM23,15.88A7.16,7.16,0,1,0,30.17,23,7.17,7.17,0,0,0,23,15.88Z" transform="translate(-1.78 -1.82)" style="fill:#fff"/><path d="M34.42,14.43a2.75,2.75,0,1,1,2.74-2.75A2.77,2.77,0,0,1,34.42,14.43Z" transform="translate(-1.78 -1.82)" style="fill:#fff"/></svg>