<svg id="Layer_1" data-name="Layer 1" xmlns="http://www.w3.org/2000/svg" viewBox="0 0 41.31 41.28"><title>linkedin</title><path d="M2.35,23.05c0-5.81,0-11.63,0-17.44A3,3,0,0,1,3.54,3a2.85,2.85,0,0,1,1.77-.6H40.69a2.94,2.94,0,0,1,3,2.88c0,.12,0,.23,0,.35q0,17.38,0,34.78a3.08,3.08,0,0,1-1.44,2.82,2.87,2.87,0,0,1-1.54.44H5.33a3,3,0,0,1-3-2.88c0-1.24,0-2.49,0-3.74ZM24.53,37.56v-.42c0-3.11,0-6.23,0-9.34a11.62,11.62,0,0,1,.29-2.5,3,3,0,0,1,2.74-2.5,2.92,2.92,0,0,1,3.67,2.59,12.67,12.67,0,0,1,.18,2.13c0,3.21,0,6.42,0,9.62v.42h6.12c0-.11,0-.19,0-.27,0-3.72,0-7.45,0-11.18a13.94,13.94,0,0,0-.69-4.66A5.53,5.53,0,0,0,33.76,18a8.72,8.72,0,0,0-4.34-.59,6.26,6.26,0,0,0-4.94,3,2.19,2.19,0,0,1-.16.2c0-.19,0-.3,0-.41,0-.65,0-1.31,0-2,0-.27-.05-.38-.36-.38-1.72,0-3.43,0-5.15,0l-.33,0V37.56ZM8.49,17.9V37.56h6.06V17.9Zm3-9.81a3.56,3.56,0,1,0,3.57,3.56A3.55,3.55,0,0,0,11.54,8.09Z" transform="translate(-2.35 -2.42)" style="fill:#fff"/></svg>